<svg xmlns="http://www.w3.org/2000/svg" width="19" height="17" viewBox="0 0 19 17">
  <g id="Group_2489" data-name="Group 2489" transform="translate(-171 -53)">
    <g id="Group_9" data-name="Group 9" transform="translate(171.105 53)">
      <path id="Combined_Shape" data-name="Combined Shape" d="M9.417,17c-3.467,0-7.8-.166-8.535-.265-.107-.014-.252-.068-.252-.2a.214.214,0,0,1,.163-.185l.161-.047a24.8,24.8,0,0,0,7.924-4.218,1.908,1.908,0,0,1,1.91-.492,21.4,21.4,0,0,1,4.657,2.042,17.627,17.627,0,0,1,2.268,1.534c.45.381.755.743.524,1.145a.769.769,0,0,1-.612.352A60.858,60.858,0,0,1,10.133,17H9.417ZM.086,15.432a.775.775,0,0,1,0-.708A61.411,61.411,0,0,1,3.552,8.048q.173-.3.356-.622C5.646,4.416,7.952.732,8.4.142c.066-.086.184-.186.3-.121a.215.215,0,0,1,.078.234c0,.013-.029.121-.04.164a25,25,0,0,0-.321,9,1.922,1.922,0,0,1-.531,1.906A21.456,21.456,0,0,1,3.8,14.346a17.576,17.576,0,0,1-2.458,1.2,2.275,2.275,0,0,1-.728.168A.554.554,0,0,1,.086,15.432Zm18.594-.189c-.01-.009-.09-.086-.121-.116a24.818,24.818,0,0,0-7.6-4.777c-.731-.334-1.112-.508-1.379-1.415A21.583,21.583,0,0,1,9.01,3.868,17.716,17.716,0,0,1,9.2,1.13C9.3.548,9.464.1,9.927.1a.768.768,0,0,1,.61.356,61.427,61.427,0,0,1,4.03,6.348q.176.3.359.621c1.729,3.015,3.756,6.861,4.039,7.55.041.1.068.253-.043.317a.154.154,0,0,1-.078.021A.272.272,0,0,1,18.68,15.243Z" transform="translate(-0.105 0)" fill="#fff"/>
    </g>
  </g>
</svg>
